<?xml version="1.0" encoding="UTF-8"?>
<svg id="Logo" xmlns="http://www.w3.org/2000/svg" version="1.1" viewBox="0 0 2000 816">
  <defs>
    <style>
      .cls-1 {
        fill: #fddb32;
      }

      .cls-1, .cls-2, .cls-3 {
        stroke-width: 0px;
      }

      .cls-2 {
        fill: #000;
      }

      .cls-3 {
        fill: #fff;
      }
    </style>
  </defs>
  <path class="cls-3" d="M1000,789.3c-252.2,0-490-35.5-669.7-99.9-90.5-32.5-162.3-70.9-213.3-114.2-59.9-50.8-90.3-107-90.3-167.1s30.4-116.4,90.3-167.1c51.1-43.3,122.8-81.7,213.3-114.2C510,62.2,747.8,26.8,1000,26.8s490,35.5,669.7,99.9c90.5,32.5,162.3,70.9,213.3,114.2,59.9,50.8,90.3,107,90.3,167.1s-30.4,116.4-90.3,167.1c-51.1,43.3-122.8,81.7-213.3,114.2-179.6,64.4-417.5,99.9-669.6,99.9Z"/>
  <path class="cls-2" d="M1870,256.2c-49.2-41.8-118.9-79-207.1-110.6-177.5-63.7-412.9-98.8-662.9-98.8s-485.3,35.1-662.9,98.8c-88.2,31.6-157.9,68.8-207.1,110.6-55.2,46.8-83.2,97.9-83.2,151.8s28,105,83.2,151.8c49.2,41.8,118.9,79,207.1,110.6,177.5,63.7,412.9,98.8,662.9,98.8s485.3-35.1,662.9-98.8c88.2-31.6,157.9-68.8,207.1-110.6,55.2-46.8,83.2-97.9,83.2-151.8s-28-105-83.2-151.8ZM1284.4,723.1c42.7-15,82.6-33.5,118.5-55.2,53.9-32.6,96.5-70.8,126.5-113.8,1.2-1.7,2.4-3.5,3.6-5.2h-37.1c-75.6,97-226.8,168.2-407.6,185.9,22.6-18.9,43.1-45.4,60.5-78.8,16.4-31.5,29.4-67.8,38.4-107.2h-30.9c-27.6,112.4-87.2,190.2-156.2,190.2s-128.6-77.8-156.2-190.2h-31c9.1,39.3,22,75.6,38.4,107.2,17.4,33.3,37.9,59.8,60.5,78.8-180.9-17.7-332.1-88.9-407.6-185.9h-37.1c1.2,1.8,2.4,3.5,3.6,5.2,30,42.9,72.6,81.2,126.5,113.8,36,21.7,75.8,40.2,118.5,55.2-370.6-43-638.7-167.8-638.7-315.1S345,135.9,715.6,92.9c-42.7,15-82.6,33.5-118.5,55.2-53.9,32.6-96.5,70.8-126.5,113.8-1.2,1.7-2.4,3.5-3.6,5.2h37.1c75.6-97,226.8-168.2,407.6-185.9-22.6,18.9-43.1,45.4-60.5,78.8-16.4,31.5-29.4,67.8-38.4,107.2h31c27.6-112.4,87.2-190.2,156.2-190.2s128.6,77.8,156.2,190.2h30.9c-9.1-39.4-22-75.6-38.4-107.2-17.4-33.3-37.9-59.8-60.5-78.8,180.9,17.7,332.1,88.9,407.6,185.9h37.1c-1.2-1.8-2.4-3.5-3.6-5.2-30-42.9-72.6-81.1-126.5-113.8-35.9-21.7-75.8-40.2-118.5-55.2,370.6,43,638.7,167.8,638.7,315.1s-268,272.1-638.7,315.1Z"/>
  <g>
    <polygon class="cls-2" points="414.7 381.3 294.3 381.3 294.3 314.4 247.5 314.4 247.5 501.7 294.3 501.7 294.3 421.4 414.7 421.4 414.7 501.7 461.5 501.7 461.5 314.4 414.7 314.4 414.7 381.3"/>
    <path class="cls-2" d="M1431.4,314.4h-46.8v147.2c0,22.2,20.9,40.1,46.8,40.1h127.1v-40.1h-127.1v-147.2Z"/>
    <path class="cls-2" d="M1625.4,461.5v-147.2h-46.8v147.2c0,22.2,20.9,40.1,46.8,40.1h127.1v-40.1h-127.1Z"/>
    <polygon class="cls-2" points="1170.6 314.4 1170.6 314.4 1170.6 501.7 1170.6 501.7 1357.9 501.7 1357.9 461.5 1217.4 461.5 1217.4 421.4 1344.5 421.4 1344.5 388 1217.4 388 1217.4 354.5 1357.9 354.5 1357.9 314.4 1170.6 314.4"/>
    <path class="cls-2" d="M655.5,461.5h-120.4v-147.2h-46.8v147.2c0,22.2,20.9,40.1,46.8,40.1h120.4c25.8,0,46.8-17.9,46.8-40.1v-147.2h-46.8v147.2Z"/>
    <path class="cls-2" d="M886.2,403c17.9-7.7,30.2-23.5,30.2-41.8s-24.5-46.8-54.6-46.8h-132.7s0,187.3,0,187.3h142.1c32.3,0,58.5-22.5,58.5-50.2s-18.5-42.8-43.6-48.5ZM848.1,351.2c11.8,0,21.5,8.2,21.5,18.4s-9.6,18.4-21.4,18.4h-72.3v-36.8h72.2ZM859.5,461.5h-83.6v-40.1h83.6c12.9,0,23.4,9,23.4,20.1,0,11.1-10.5,20.1-23.4,20.1Z"/>
    <path class="cls-2" d="M1106.9,403c17.9-7.7,30.2-23.5,30.2-41.8s-24.5-46.8-54.6-46.8h-132.7s0,187.3,0,187.3h142.1c32.3,0,58.5-22.5,58.5-50.2,0-23.3-18.5-42.8-43.6-48.5ZM1068.8,351.2c11.8,0,21.5,8.2,21.5,18.4s-9.6,18.4-21.4,18.4h-72.3v-36.8h72.2ZM1080.3,461.5h-83.6v-40.1h83.6c12.9,0,23.4,9,23.4,20.1,0,11.1-10.5,20.1-23.4,20.1Z"/>
  </g>
  <path class="cls-1" d="M1900.3,220.5c-53.5-45.4-128.1-85.4-221.6-119C1496.2,36,1255.2,0,1000,0S503.8,36,321.3,101.5c-93.5,33.6-168.1,73.6-221.6,119C33.5,276.6,0,339.7,0,408s33.5,131.4,99.7,187.6c53.5,45.4,128.1,85.4,221.6,119,182.5,65.5,423.5,101.5,678.7,101.5s496.2-36,678.7-101.5c93.5-33.6,168.1-73.6,221.6-119,66.2-56.1,99.7-119.2,99.7-187.5s-33.5-131.5-99.7-187.6ZM1870,559.9c-49.2,41.8-118.9,79-207.1,110.6-177.5,63.7-412.9,98.8-662.9,98.8s-485.3-35.1-662.9-98.8c-88.2-31.6-157.9-68.8-207.1-110.6-55.2-46.8-83.2-97.9-83.2-151.8s28-105,83.2-151.8c49.2-41.8,118.9-79,207.1-110.6,177.5-63.7,413-98.8,662.9-98.8s485.3,35.1,662.9,98.8c88.2,31.6,157.9,68.9,207.1,110.6,55.2,46.8,83.2,97.9,83.2,151.8s-28,105-83.2,151.8Z"/>
</svg>